<svg width="143" height="39" viewBox="0 0 143 39" fill="none" xmlns="http://www.w3.org/2000/svg">
<path d="M62.0635 4.42984C61.4797 4.42903 60.9031 4.55719 60.3764 4.80487V3.87629C60.3767 2.95277 60.042 2.05949 59.4324 1.35743C58.8229 0.65536 57.9786 0.190676 57.0518 0.0471132C56.1249 -0.0964501 55.1765 0.0905481 54.3773 0.57441C53.5782 1.05827 52.9809 1.80718 52.6931 2.68617C52.0936 2.36611 51.4199 2.20484 50.7381 2.21816C50.0562 2.23148 49.3896 2.41893 48.8035 2.76215C48.2174 3.10536 47.7319 3.59257 47.3947 4.17603C47.0574 4.75949 46.8799 5.41919 46.8796 6.09047V14.9472L46.3426 14.0989C45.8209 13.2128 44.9641 12.566 43.9594 12.2999C42.9547 12.0338 41.8839 12.17 40.9809 12.6788C40.0779 13.1876 39.4163 14.0275 39.1407 15.015C38.865 16.0025 38.9978 17.0573 39.5099 17.9488C41.7593 22.6221 43.5772 25.9364 45.6565 28.0081C47.7569 30.106 50.1413 31 53.628 31C56.9081 30.9963 60.0528 29.7121 62.3722 27.4291C64.6916 25.1461 65.9963 22.0507 66 18.822V8.30466C66 7.27699 65.5853 6.29142 64.847 5.56475C64.1088 4.83808 63.1075 4.42984 62.0635 4.42984ZM63.7505 18.822C63.7476 21.4637 62.6801 23.9963 60.7824 25.8643C58.8847 27.7322 56.3118 28.7829 53.628 28.7858C50.7628 28.7858 48.9168 28.1105 47.255 26.454C45.395 24.5983 43.6826 21.4514 41.5231 16.9649C41.5105 16.9374 41.4964 16.9106 41.4809 16.8846C41.2572 16.5031 41.1966 16.0497 41.3125 15.6242C41.4284 15.1987 41.7112 14.836 42.0988 14.6158C42.4864 14.3955 42.947 14.3359 43.3793 14.45C43.8116 14.564 44.1801 14.8424 44.4038 15.224C44.4096 15.2351 44.4161 15.2457 44.4235 15.2558L47.0483 19.4074C47.1773 19.6122 47.3706 19.77 47.5989 19.8568C47.8272 19.9437 48.0781 19.9549 48.3134 19.8887C48.5488 19.8224 48.7558 19.6825 48.903 19.49C49.0502 19.2975 49.1296 19.0629 49.1291 18.822V6.09047C49.1291 5.65005 49.3068 5.22766 49.6232 4.91623C49.9396 4.6048 50.3687 4.42984 50.8162 4.42984C51.2636 4.42984 51.6927 4.6048 52.0091 4.91623C52.3255 5.22766 52.5033 5.65005 52.5033 6.09047V14.3937C52.5033 14.6873 52.6218 14.9689 52.8327 15.1765C53.0436 15.3841 53.3297 15.5007 53.628 15.5007C53.9263 15.5007 54.2124 15.3841 54.4233 15.1765C54.6342 14.9689 54.7527 14.6873 54.7527 14.3937V3.87629C54.7527 3.43587 54.9305 3.01348 55.2469 2.70205C55.5633 2.39062 55.9924 2.21566 56.4398 2.21566C56.8873 2.21566 57.3164 2.39062 57.6328 2.70205C57.9492 3.01348 58.1269 3.43587 58.1269 3.87629V14.3937C58.1269 14.6873 58.2454 14.9689 58.4563 15.1765C58.6673 15.3841 58.9533 15.5007 59.2516 15.5007C59.5499 15.5007 59.836 15.3841 60.0469 15.1765C60.2579 14.9689 60.3764 14.6873 60.3764 14.3937V8.30466C60.3764 7.86423 60.5541 7.44184 60.8705 7.13041C61.1869 6.81898 61.616 6.64402 62.0635 6.64402C62.5109 6.64402 62.94 6.81898 63.2564 7.13041C63.5728 7.44184 63.7505 7.86423 63.7505 8.30466V18.822Z" fill="white"/>
<path d="M6.94318 7.72727V31H2.02273V7.72727H6.94318ZM10.9006 31V13.5455H15.5142V16.625H15.7188C16.0824 15.6023 16.6884 14.7955 17.5369 14.2045C18.3854 13.6136 19.4006 13.3182 20.5824 13.3182C21.7794 13.3182 22.7983 13.6174 23.6392 14.2159C24.4801 14.8068 25.0407 15.6098 25.321 16.625H25.5028C25.8589 15.625 26.5028 14.8258 27.4347 14.2273C28.3741 13.6212 29.4839 13.3182 30.7642 13.3182C32.393 13.3182 33.715 13.8371 34.7301 14.875C35.7528 15.9053 36.2642 17.3674 36.2642 19.2614V31H31.4347V20.2159C31.4347 19.2462 31.1771 18.5189 30.6619 18.0341C30.1468 17.5492 29.5028 17.3068 28.7301 17.3068C27.8513 17.3068 27.1657 17.5871 26.6733 18.1477C26.1809 18.7008 25.9347 19.4318 25.9347 20.3409V31H21.2415V20.1136C21.2415 19.2576 20.9953 18.5758 20.5028 18.0682C20.018 17.5606 19.3778 17.3068 18.5824 17.3068C18.0445 17.3068 17.5597 17.4432 17.1278 17.7159C16.7036 17.9811 16.3665 18.3561 16.1165 18.8409C15.8665 19.3182 15.7415 19.8788 15.7415 20.5227V31H10.9006ZM69.804 31V7.72727H74.7244V17.3295H84.7131V7.72727H89.6222V31H84.7131V21.3864H74.7244V31H69.804ZM101.543 31.3409C99.7472 31.3409 98.2017 30.9773 96.9062 30.25C95.6184 29.5152 94.6259 28.4773 93.929 27.1364C93.232 25.7879 92.8835 24.1932 92.8835 22.3523C92.8835 20.5568 93.232 18.9811 93.929 17.625C94.6259 16.2689 95.607 15.2121 96.8722 14.4545C98.1449 13.697 99.6373 13.3182 101.349 13.3182C102.501 13.3182 103.573 13.5038 104.565 13.875C105.565 14.2386 106.437 14.7879 107.179 15.5227C107.929 16.2576 108.512 17.1818 108.929 18.2955C109.346 19.4015 109.554 20.697 109.554 22.1818V23.5114H94.8153V20.5114H104.997C104.997 19.8144 104.846 19.197 104.543 18.6591C104.24 18.1212 103.819 17.7008 103.281 17.3977C102.751 17.0871 102.134 16.9318 101.429 16.9318C100.694 16.9318 100.043 17.1023 99.4744 17.4432C98.9138 17.7765 98.4744 18.2273 98.1562 18.7955C97.8381 19.3561 97.6752 19.9811 97.6676 20.6705V23.5227C97.6676 24.3864 97.8267 25.1326 98.1449 25.7614C98.4706 26.3902 98.929 26.875 99.5199 27.2159C100.111 27.5568 100.812 27.7273 101.622 27.7273C102.16 27.7273 102.652 27.6515 103.099 27.5C103.546 27.3485 103.929 27.1212 104.247 26.8182C104.565 26.5152 104.808 26.1439 104.974 25.7045L109.452 26C109.224 27.0758 108.759 28.0152 108.054 28.8182C107.357 29.6136 106.455 30.2348 105.349 30.6818C104.251 31.1212 102.982 31.3409 101.543 31.3409ZM112.713 31V13.5455H117.406V16.5909H117.588C117.906 15.5076 118.44 14.6894 119.19 14.1364C119.94 13.5758 120.804 13.2955 121.781 13.2955C122.024 13.2955 122.285 13.3106 122.565 13.3409C122.846 13.3712 123.092 13.4129 123.304 13.4659V17.7614C123.077 17.6932 122.762 17.6326 122.361 17.5795C121.959 17.5265 121.592 17.5 121.259 17.5C120.546 17.5 119.91 17.6553 119.349 17.9659C118.796 18.2689 118.357 18.6932 118.031 19.2386C117.713 19.7841 117.554 20.4129 117.554 21.125V31H112.713ZM132.949 31.3409C131.153 31.3409 129.608 30.9773 128.312 30.25C127.025 29.5152 126.032 28.4773 125.335 27.1364C124.638 25.7879 124.29 24.1932 124.29 22.3523C124.29 20.5568 124.638 18.9811 125.335 17.625C126.032 16.2689 127.013 15.2121 128.278 14.4545C129.551 13.697 131.044 13.3182 132.756 13.3182C133.907 13.3182 134.979 13.5038 135.972 13.875C136.972 14.2386 137.843 14.7879 138.585 15.5227C139.335 16.2576 139.919 17.1818 140.335 18.2955C140.752 19.4015 140.96 20.697 140.96 22.1818V23.5114H126.222V20.5114H136.403C136.403 19.8144 136.252 19.197 135.949 18.6591C135.646 18.1212 135.225 17.7008 134.688 17.3977C134.157 17.0871 133.54 16.9318 132.835 16.9318C132.1 16.9318 131.449 17.1023 130.881 17.4432C130.32 17.7765 129.881 18.2273 129.562 18.7955C129.244 19.3561 129.081 19.9811 129.074 20.6705V23.5227C129.074 24.3864 129.233 25.1326 129.551 25.7614C129.877 26.3902 130.335 26.875 130.926 27.2159C131.517 27.5568 132.218 27.7273 133.028 27.7273C133.566 27.7273 134.059 27.6515 134.506 27.5C134.953 27.3485 135.335 27.1212 135.653 26.8182C135.972 26.5152 136.214 26.1439 136.381 25.7045L140.858 26C140.631 27.0758 140.165 28.0152 139.46 28.8182C138.763 29.6136 137.862 30.2348 136.756 30.6818C135.657 31.1212 134.388 31.3409 132.949 31.3409Z" fill="white"/>
</svg>
